<?xml version="1.0" encoding="utf-8"?>
<!-- Svg Vector Icons : http://www.onlinewebfonts.com/icon -->
<!DOCTYPE svg PUBLIC "-//W3C//DTD SVG 1.1//EN" "http://www.w3.org/Graphics/SVG/1.1/DTD/svg11.dtd">
<svg version="1.1" xmlns="http://www.w3.org/2000/svg" xmlns:xlink="http://www.w3.org/1999/xlink" x="0px" y="0px" viewBox="0 0 1000 1000" enable-background="new 0 0 1000 1000" xml:space="preserve">
<metadata> Svg Vector Icons : http://www.onlinewebfonts.com/icon </metadata>
<g><path d="M226.7,302.6c0,151,122.4,273.3,273.3,273.3c151,0,273.3-122.4,273.3-273.3S651,29.2,500,29.2C349,29.2,226.7,151.6,226.7,302.6L226.7,302.6z"/><path d="M986.9,895.3C943.8,768,834.1,671,700.8,644.5c-58.8,34.3-127.4,53.9-200.8,53.9s-142.1-19.6-200.8-53.9C165.9,671,56.2,768,13.1,895.3c-12.7,37.2,15.7,75.4,54.9,75.4h864.1C971.2,970.8,999.7,932.5,986.9,895.3z"/></g>
</svg>